# xmcd CD database file
#
# Track frame offsets:
#	150
#	12788
#	25546
#	36369
#	55126
#	68926
#	80860
#	96678
#	109597
#	128523
#
# Disc length: 1852 seconds
#
# Revision: 0
# Processed by: cddbd v1.5.2PL0 Copyright (c) Steve Scherf et al.
# Submitted via: CDex 1.70beta2
#
DISCID=7f073a0a
DTITLE=Various Artist - Jingle Bells - all-Time Christmas Favorites
DYEAR=2001
DGENRE=Jazz
TTITLE0=Zat You, Santa Claus? - Louis Armstrong
TTITLE1=Jingle Bells - Holly Players Orchestra
TTITLE2=O Holy Night - Jack Jones
TTITLE3=What Child Is This? - Bobby Clifton Orchestra
TTITLE4=It Came Upon a Midnight Clear - Patti Page
TTITLE5=Jolly Old St. Nicholas - Holly Players Orchestra
TTITLE6=The Bells of St. Mary's - Vic Damone
TTITLE7=Good Christian Men Rejoice - Bobby Clifton Orchestra
TTITLE8=In The Upper Room - Mahalia Jackson
TTITLE9=Joy To the World - Bobby Clifton Orchestra
EXTD=YEAR: 2001
EXTT0=
EXTT1=
EXTT2=
EXTT3=
EXTT4=
EXTT5=
EXTT6=
EXTT7=
EXTT8=
EXTT9=
PLAYORDER=
